<svg width="21" height="20" viewBox="0 0 21 20" fill="none" xmlns="http://www.w3.org/2000/svg">
<path d="M10.6535 4.0902C12.0632 4.08935 13.4277 4.5799 14.5053 5.47495L17.5236 2.64456C16.3649 1.59253 14.9732 0.8209 13.4589 0.390919C11.9446 -0.0390612 10.3493 -0.115559 8.79977 0.167498C7.2502 0.450555 5.78895 1.08537 4.53199 2.02157C3.27503 2.95778 2.25697 4.16959 1.55859 5.56084L4.9613 8.14354C5.35813 6.96516 6.12142 5.9396 7.14303 5.21213C8.16465 4.48466 9.39281 4.09215 10.6535 4.0902Z" fill="#D94F3D"/>
<path d="M4.65357 9.99815C4.65442 9.3677 4.7582 8.74149 4.96094 8.14349L1.55823 5.56079C0.862213 6.93958 0.5 8.4584 0.5 9.99815C0.5 11.5379 0.862213 13.0567 1.55823 14.4355L4.96094 11.8528C4.7582 11.2548 4.65442 10.6286 4.65357 9.99815Z" fill="#F2C042"/>
<path d="M20.3909 8.18036H10.6992V12.2705H16.1912C15.8645 13.427 15.1159 14.4241 14.089 15.0709L17.4654 17.6341C19.6229 15.7271 20.8907 12.6263 20.3909 8.18036Z" fill="#5085ED"/>
<path d="M14.0881 15.0709C13.0446 15.6591 11.8551 15.9484 10.6535 15.9062C9.39281 15.9043 8.16465 15.5118 7.14303 14.7843C6.12142 14.0568 5.35813 13.0313 4.9613 11.8529L1.55859 14.4356C2.39907 16.104 3.69559 17.5083 5.30232 18.4907C6.90906 19.4731 8.76228 19.9945 10.6535 19.9964C13.1422 20.063 15.5679 19.2213 17.4645 17.6332L14.0881 15.0709Z" fill="#57A75C"/>
</svg>
