<svg version="1.2" xmlns="http://www.w3.org/2000/svg" viewBox="0 0 1600 512" width="100" height="32">
	<title>logo</title>
	<style>
		.s0 { fill: #2766ec } 
		.s1 { fill: #f5f5f5 } 
	</style>
	<path id="Layer" fill-rule="evenodd" class="s0" d="m248.4 21c14.1 3.9 32.3 14.9 42.6 25.7l8.2 8.7 9.6-9.4c38.9-37.4 92.8-37.2 132.9 0.5l8.8 8 7.6-8.3c9.1-9.7 31.8-22.7 45.1-26 21.4-5.4 49-0.6 69.2 11.8 17.3 10.5 37.5 34.9 45.4 54.8 3.3 8.3 6.5 17.4 7.2 20.5l1 5.8h-25.1c-23.6 0-25.7 0.4-34.2 5.3-4.9 2.9-11.5 8.9-14.5 13.5-10.3 15.3-10.3 16.3-10.3 140.4 0 105.9-0.2 114.2-3.5 129.1-4.9 22.8-12.9 39.3-27 56.1-14 16.5-34.1 30-50.8 34.1-14.9 3.7-44.2 1.6-57.8-4.1-10.1-4.2-24.6-14.3-35.8-25.1l-4.5-4.5-8.5 8.2c-19.2 19.1-39.8 27.6-66 27.6-26.2 0-49-9.6-66.5-27.8l-8.4-8.9-9.4 9.1c-35.4 34.2-85.8 37.3-123.7 7.5-12.9-10.1-27.9-28.8-33.7-42.2l-3.3-7.5 21.3-1c30.7-1.4 42-8.5 51.1-31.6l4.2-10.4v-125.1c0-139.2 0.4-142.3 11.3-169.2 13.8-32.9 43-59.4 73.3-66.6 11.6-2.7 32.5-2.3 44.2 1zm23.7 94.1c-3.5 0-16.2 10.8-20.2 17-9.8 15.1-9.3 8.3-10.1 140.2-0.9 118.3-1.1 123.5-4.8 135.9-3.3 11.8-3.3 13.1-0.7 13.1 6.5 0 21.9-13.5 27.3-23.6l5.2-10.2 1-131.5c0.6-72.4 1.6-133.6 2.3-136.3 0.9-2.5 0.7-4.6 0-4.6zm150.4 0c-2.9 0-15.8 10.4-19 15.1-11.5 18-10.6 8.9-11.7 144.2-0.8 120-1 123.3-4.7 134.9-2.1 6.6-3 12-2.1 12 4.2 0 15.2-7.1 20.6-13.1 3.1-3.7 7.7-11.3 10-16.9l4.1-10.4v-124.1c0.2-68.2 0.9-128 1.6-133 0.9-4.7 1.4-8.7 1.2-8.7z"/>
	<path id="Late" class="s1" aria-label="Late"  d="m702.3 224v-177.2h43.2v145.5h62.3v31.7zm223.2-125.6v62.5q0 15.7 2.1 26.2 2.1 10.5 5 16.7 3.1 7.6 7.3 11.8l-33.2 10.5q-2.9-2.6-5.3-6.5-2-3.5-4.1-8.2-1.9-4.9-3.2-11.5-4.4 12.3-13.1 19.1-8.6 6.6-22.7 6.6-12.9 0-22.5-4.7-9.5-4.8-15.7-13.1-6.3-8.7-9.5-20.7-2.8-12-2.8-26.7 0-14.9 4.7-27.7 4.9-12.9 13.6-22 8.6-9.4 20.7-14.7 12-5.2 26.6-5.2 8.2 0 17.3 1.3 9.2 1 16.8 2.6 7.6 1.3 12.5 2.6 5.3 1.1 5.5 1.1zm-60.4 96.8q3.9 0 7.3-3.4 3.7-3.4 6.3-9.1 2.6-5.8 3.9-13.1 1.6-7.6 1.6-16v-30.4q-1.9-0.7-5.3-1.3-3.1-0.8-5.5-0.8-6.2 0-10.4 2.9-4.2 2.6-6.8 7.6-2.4 4.7-3.4 11.5-1.1 6.8-1.1 14.7 0 7.3 0.3 14.1 0.2 6.6 1.6 11.8 1.5 5.2 4.1 8.4 2.7 3.1 7.4 3.1zm80.6-71.2v-30.3h21.4l4.5-27 35.8-7.8v34.8h30.9l-5 30.3h-25.9v58.4q0 11.5 12.1 11.5 6.5 0 12.5-1.3 3.2-0.8 6.3-1.6l7.1 27.8q-5.2 1.8-14.7 4.2-9.1 2-22.5 2-19.6 0-30.9-8.1-10.9-8.1-10.9-27.4v-65.5zm103.1 38q0-17.6 4.9-30.9 5.3-13.6 14.2-22.5 9.1-9.2 21.2-13.9 12-4.7 26.1-4.7 12.3 0 21 3.1 8.6 2.9 14.1 8.4 5.5 5.3 8.1 12.6 2.6 7 2.6 15.4 0 9.4-4.7 17.8-4.7 8.4-13.6 14.9-8.6 6.3-21.2 10.5-12.3 4.2-28 5.5 1.8 7.9 6.6 12.8 4.9 4.7 14.9 4.7 5.7 0 12.3-1.3 6.5-1.3 12-2.9 6.6-1.8 12.8-4.1l7.9 27.2q-7.1 3.4-15.5 6-7 2.1-16.4 3.9-9.2 1.9-19.7 1.9-15.9 0-27.4-4.8-11.3-4.7-18.6-13-7.1-8.4-10.5-20.2-3.1-12-3.1-26.4zm61.2-42.4q-5 0-8.6 2.9-3.4 2.8-5.5 7.5-2.1 4.8-3.2 10.5-1 5.8-1.3 11.3 7.9-0.3 13.1-2.4 5.5-2.1 8.9-5.2 3.4-3.2 5-6.8 1.5-3.7 1.5-6.8 0-5-2.8-7.9-2.6-3.1-7.1-3.1z"/>
	<path id="Unicorn" class="s1" aria-label="Unicorn"  d="m701.7 285.8h42.9v105.5q0 11.5 2.4 19.1 2.6 7.6 6.8 12.3 4.4 4.7 10.5 6.8 6 1.8 12.8 1.8 14.1 0 21.4-9.9 7.6-10.2 7.6-30.1v-105.5h43.2v107.8q0 14.2-3.9 27-3.9 12.8-13.1 22.8-8.9 9.7-23.3 15.4-14.4 5.8-35.3 5.8-20.2 0-34-5.8-13.7-6-22-15.7-8.4-9.9-12.3-22.8-3.7-12.8-3.7-26.7zm291.5 177.2h-41.6v-81.6q0-9.2-2.3-14.7-2.1-5.7-8.1-5.7-7.4 0-13.6 9.6-6.3 9.5-6.3 26.7v65.7h-41.4v-68q0-15.7-2.3-25.9-2.1-10.5-5-17-3.1-7.4-7.1-11.8l33.3-10.5q2.3 2.6 4.7 6 2.1 2.9 3.9 7.6 2.1 4.5 3.4 10.2 6.8-12.3 18.6-18 12-5.8 26.2-5.8 20.4 0 29 12.6 8.6 12.3 8.6 33zm60.5 1q-14.9 0-24.1-7.6-9.1-7.8-9.1-22v-102.8h41.3v91q0 6.1 1.8 8.2 1.9 2.1 5.5 2.1 2.1 0 4.2-0.3 2.1-0.5 2.6-0.8l3.7 25.9q-0.3 0.3-2.3 1.3-2.1 0.8-5.5 2.1-3.4 1.1-8.2 2.1-4.7 0.8-9.9 0.8zm-12-195.5q11 0 16.7 6.5 5.8 6.6 5.8 16.5 0 10.2-6.1 17-5.7 6.8-17.5 6.8-11 0-17-6.5-5.8-6.8-5.8-16 0-10.4 6.1-17.2 6-7.1 17.8-7.1zm148.6 79l-20.4 21.2q-3.1-3.6-6.5-6.2-3.4-2.7-8.7-2.7-3.1 0-7 1.1-4 1-7.4 5-3.4 3.6-5.7 10.9-2.1 7.1-2.1 19.7 0 12.3 2.3 19.9 2.6 7.3 6.3 11.2 3.9 3.9 8.4 5.3 4.7 1.3 8.9 1.3 3.1 0 6.8-0.8 3.7-0.8 6.8-1.6 3.4-1 5.7-1.8 2.4-1.1 2.7-1.1l7.6 27.5-2.9 1.3q-2.9 1.6-8.1 3.4-5 1.6-12.3 2.9-7.1 1.3-15.7 1.3-16 0-27.5-4.7-11.5-4.7-18.9-13.1-7.3-8.4-10.7-20.1-3.4-12.1-3.4-26.5 0-17.5 4.7-30.9 5-13.6 13.4-22.7 8.6-9.2 20.1-13.6 11.8-4.7 25.4-4.7 12.8 0 22.5 5.2 9.7 5 15.7 13.3zm67.3-18.5q31.1 0 45.2 17.8 14.4 17.7 14.4 49.2 0 14.9-3.9 27.7-3.6 12.6-11.5 22-7.6 9.1-19.4 14.6-11.5 5.3-26.9 5.3-15.7 0-27.2-4.5-11.3-4.7-18.6-13.3-7.1-8.7-10.8-21-3.4-12.5-3.4-28 0-14.9 3.7-27.7 3.9-12.8 11.5-22 7.9-9.4 19.4-14.6 11.8-5.5 27.5-5.5zm-2.4 31.1q-4.7 0-7.8 2.9-3.2 2.6-5 7.6-1.6 4.7-2.4 11.2-0.5 6.6-0.5 14.2 0 7.8 0.8 14.9 0.8 7 2.6 12.3 2.1 5.2 5.8 8.3 3.6 2.9 9.1 2.9 4.7 0 7.9-2.9 3.1-2.8 4.7-7.5 1.8-5 2.3-11.6 0.8-6.5 0.8-13.8 0-8.1-0.8-14.9-0.7-7.1-2.8-12.3-1.9-5.3-5.5-8.2-3.7-3.1-9.2-3.1zm149.7 9.2q-2.9 0-6.3 1.5-3.4 1.6-6.5 5-3.2 3.1-5.2 8.4-2.1 4.9-2.1 12v66.8h-41.4v-68.1q0-15.7-2.3-25.9-2.1-10.5-5-17-3.2-7.3-7.1-11.8l33.3-10.5q2 2.7 4.4 6.1 1.8 2.8 3.9 7.3 2.1 4.4 3.4 10.2 6.6-12.6 15.5-18.1 9.1-5.5 21.4-5.5 5.5 0 9.7 1.1 4.5 0.8 7.3 1.8l-10.7 39.5q-1.8-1-5-1.8-2.8-1-7.3-1zm156 93.7h-41.6v-81.7q0-9.2-2.4-14.7-2.1-5.7-8.1-5.7-7.3 0-13.6 9.7-6.3 9.4-6.3 26.7v65.7h-41.3v-68.1q0-15.7-2.4-25.9-2.1-10.5-5-17-3.1-7.3-7-11.8l33.2-10.5q2.4 2.7 4.7 6.1 2.1 2.8 3.9 7.6 2.1 4.4 3.5 10.2 6.8-12.3 18.5-18.1 12.1-5.8 26.2-5.8 20.4 0 29.1 12.6 8.6 12.3 8.6 33z"/>
</svg>